<?xml version="1.0" encoding="UTF-8"?>
<!DOCTYPE svg PUBLIC "-//W3C//DTD SVG 1.1//EN" "http://www.w3.org/Graphics/SVG/1.1/DTD/svg11.dtd">
<svg xmlns="http://www.w3.org/2000/svg" version="1.1" width="500px" height="500px" style="shape-rendering:geometricPrecision; text-rendering:geometricPrecision; image-rendering:optimizeQuality; fill-rule:evenodd; clip-rule:evenodd" xmlns:xlink="http://www.w3.org/1999/xlink">
<g><path style="opacity:1" fill="#9ea4aa" d="M -0.5,-0.5 C 166.167,-0.5 332.833,-0.5 499.5,-0.5C 499.5,166.167 499.5,332.833 499.5,499.5C 332.833,499.5 166.167,499.5 -0.5,499.5C -0.5,332.833 -0.5,166.167 -0.5,-0.5 Z"/></g>
<g><path style="opacity:1" fill="#1c2939" d="M 290.5,88.5 C 272.792,88.173 255.459,91.0063 238.5,97C 223.565,103.135 208.898,109.802 194.5,117C 173.626,118.108 155.626,125.775 140.5,140C 139.552,140.483 138.552,140.649 137.5,140.5C 135.5,140.5 133.5,140.5 131.5,140.5C 126.833,140.5 122.167,140.5 117.5,140.5C 117.5,122.167 117.5,103.833 117.5,85.5C 169.501,85.3333 221.501,85.5 273.5,86C 279.168,86.9165 284.835,87.7499 290.5,88.5 Z"/></g>
<g><path style="opacity:1" fill="#57616c" d="M 290.5,88.5 C 301.088,91.5291 311.588,94.8624 322,98.5C 325.384,97.9275 328.551,96.7608 331.5,95C 334.167,94.3333 336.833,94.3333 339.5,95C 334.973,98.6987 330.639,102.532 326.5,106.5C 308.537,121.831 288.537,134.164 266.5,143.5C 265.702,143.957 265.369,144.624 265.5,145.5C 264.735,145.077 263.902,144.743 263,144.5C 248.459,150.235 233.792,155.569 219,160.5C 218.5,177.163 218.333,193.83 218.5,210.5C 217.504,194.342 217.17,178.009 217.5,161.5C 197.651,164.805 177.984,164.138 158.5,159.5C 158.5,159.167 158.5,158.833 158.5,158.5C 158.5,156.5 158.5,154.5 158.5,152.5C 167.866,155.84 177.533,157.506 187.5,157.5C 197.583,157.231 207.583,156.231 217.5,154.5C 217.5,149.833 217.5,145.167 217.5,140.5C 221.371,140.185 225.038,140.518 228.5,141.5C 225.167,141.5 221.833,141.5 218.5,141.5C 218.5,145.5 218.5,149.5 218.5,153.5C 228.861,151.323 238.861,147.99 248.5,143.5C 249.773,142.743 249.773,142.077 248.5,141.5C 235.186,133.444 220.852,127.61 205.5,124C 189.576,122.398 174.576,125.398 160.5,133C 156.988,135.061 153.988,137.561 151.5,140.5C 148.366,142.293 145.033,143.626 141.5,144.5C 139.659,143.598 138.326,142.264 137.5,140.5C 138.552,140.649 139.552,140.483 140.5,140C 155.626,125.775 173.626,118.108 194.5,117C 208.898,109.802 223.565,103.135 238.5,97C 255.459,91.0063 272.792,88.173 290.5,88.5 Z"/></g>
<g><path style="opacity:1" fill="#1c2939" d="M 268.5,95.5 C 282.358,94.685 296.025,95.8517 309.5,99C 313.005,99.6574 316.005,101.157 318.5,103.5C 302.389,118.069 284.055,129.236 263.5,137C 259.041,136.854 254.708,135.854 250.5,134C 237.941,128.22 225.275,122.72 212.5,117.5C 220.409,111.711 229.075,107.211 238.5,104C 248.451,100.516 258.451,97.683 268.5,95.5 Z"/></g>
<g><path style="opacity:1" fill="#1c2939" d="M 326.5,106.5 C 329.462,109.964 332.629,113.297 336,116.5C 336.667,117.5 336.667,118.5 336,119.5C 321.922,134.08 305.756,145.747 287.5,154.5C 300.947,156.553 314.28,156.887 327.5,155.5C 335.626,155.395 343.293,153.729 350.5,150.5C 351.167,150.5 351.833,150.5 352.5,150.5C 363.168,191.646 349.168,221.146 310.5,239C 350.632,252.84 368.465,281.007 364,323.5C 358.729,358.109 339.229,380.276 305.5,390C 294.731,393.24 283.731,394.74 272.5,394.5C 221.167,394.5 169.833,394.5 118.5,394.5C 118.5,374.833 118.5,355.167 118.5,335.5C 132.01,335.829 145.344,335.496 158.5,334.5C 158.5,316.167 158.5,297.833 158.5,279.5C 177.883,286.341 197.216,286.008 216.5,278.5C 217.167,297.329 217.833,315.996 218.5,334.5C 229.838,334.667 241.172,334.5 252.5,334C 280.85,332.665 292.35,318.165 287,290.5C 284.832,281.312 279.332,275.145 270.5,272C 259.323,268.165 247.823,266.665 236,267.5C 230.167,267.667 224.333,267.833 218.5,268C 217.663,269.011 217.33,270.178 217.5,271.5C 208.021,272.047 199.021,270.214 190.5,266C 178.972,260.744 168.305,254.244 158.5,246.5C 158.5,217.5 158.5,188.5 158.5,159.5C 177.984,164.138 197.651,164.805 217.5,161.5C 217.17,178.009 217.504,194.342 218.5,210.5C 233.483,212.22 248.483,211.387 263.5,208C 277.16,205.341 284.993,197.175 287,183.5C 289.889,164.927 282.722,152.26 265.5,145.5C 265.369,144.624 265.702,143.957 266.5,143.5C 288.537,134.164 308.537,121.831 326.5,106.5 Z"/></g>
<g><path style="opacity:1" fill="#bfc3c7" d="M 352.5,150.5 C 351.833,150.5 351.167,150.5 350.5,150.5C 350.5,148.167 350.5,145.833 350.5,143.5C 359.083,140.632 364.916,134.965 368,126.5C 368.038,115.806 362.871,112.306 352.5,116C 348.234,118.381 344.068,120.881 340,123.5C 336.602,120.55 336.769,117.717 340.5,115C 349.758,107.072 360.092,105.405 371.5,110C 378.902,117.985 379.402,126.485 373,135.5C 367.394,142.366 360.561,147.366 352.5,150.5 Z"/></g>
<g><path style="opacity:1" fill="#1d2939" d="M 248.5,141.5 C 241.833,141.5 235.167,141.5 228.5,141.5C 225.038,140.518 221.371,140.185 217.5,140.5C 217.5,145.167 217.5,149.833 217.5,154.5C 207.583,156.231 197.583,157.231 187.5,157.5C 177.533,157.506 167.866,155.84 158.5,152.5C 158.5,148.5 158.5,144.5 158.5,140.5C 156.167,140.5 153.833,140.5 151.5,140.5C 153.988,137.561 156.988,135.061 160.5,133C 174.576,125.398 189.576,122.398 205.5,124C 220.852,127.61 235.186,133.444 248.5,141.5 Z"/></g>
<g><path style="opacity:1" fill="#1f2b3b" d="M 350.5,143.5 C 342.823,146.753 334.823,148.753 326.5,149.5C 321.821,149.666 317.155,149.499 312.5,149C 321.981,141.02 331.315,132.853 340.5,124.5C 345.137,130.105 348.47,136.438 350.5,143.5 Z"/></g>
<g><path style="opacity:1" fill="#9aa0a7" d="M 151.5,140.5 C 153.833,140.5 156.167,140.5 158.5,140.5C 158.5,144.5 158.5,148.5 158.5,152.5C 152.413,150.589 146.747,147.923 141.5,144.5C 145.033,143.626 148.366,142.293 151.5,140.5 Z"/></g>
<g><path style="opacity:1" fill="#f6f7f7" d="M 131.5,140.5 C 133.5,140.5 135.5,140.5 137.5,140.5C 138.326,142.264 139.659,143.598 141.5,144.5C 146.747,147.923 152.413,150.589 158.5,152.5C 158.5,154.5 158.5,156.5 158.5,158.5C 146.352,154.093 134.685,148.593 123.5,142C 126.365,141.817 129.031,141.317 131.5,140.5 Z"/></g>
<g><path style="opacity:1" fill="#9ea4aa" d="M 228.5,141.5 C 235.167,141.5 241.833,141.5 248.5,141.5C 249.773,142.077 249.773,142.743 248.5,143.5C 238.861,147.99 228.861,151.323 218.5,153.5C 218.5,149.5 218.5,145.5 218.5,141.5C 221.833,141.5 225.167,141.5 228.5,141.5 Z"/></g>
<g><path style="opacity:1" fill="#9fa4ab" d="M 265.5,145.5 C 282.722,152.26 289.889,164.927 287,183.5C 284.993,197.175 277.16,205.341 263.5,208C 248.483,211.387 233.483,212.22 218.5,210.5C 218.333,193.83 218.5,177.163 219,160.5C 233.792,155.569 248.459,150.235 263,144.5C 263.902,144.743 264.735,145.077 265.5,145.5 Z"/></g>
<g><path style="opacity:1" fill="#acb1b6" d="M 350.5,143.5 C 350.5,145.833 350.5,148.167 350.5,150.5C 343.293,153.729 335.626,155.395 327.5,155.5C 314.175,156.668 308.175,156.334 309.5,154.5C 309.33,153.178 309.663,152.011 310.5,151C 316.016,150.827 321.349,150.327 326.5,149.5C 334.823,148.753 342.823,146.753 350.5,143.5 Z"/></g>
<g><path style="opacity:1" fill="#f6f7f7" d="M 158.5,246.5 C 168.305,254.244 178.972,260.744 190.5,266C 199.021,270.214 208.021,272.047 217.5,271.5C 220.5,271.5 223.5,271.5 226.5,271.5C 225.841,275.994 223.175,277.661 218.5,276.5C 213.77,276.717 209.103,276.383 204.5,275.5C 187.575,271.37 172.242,264.037 158.5,253.5C 145.058,242.804 129.725,238.637 112.5,241C 125.789,254.799 141.123,265.633 158.5,273.5C 158.5,275.5 158.5,277.5 158.5,279.5C 136.465,270.144 117.465,256.477 101.5,238.5C 121.817,231.64 140.817,234.307 158.5,246.5 Z"/></g>
<g><path style="opacity:1" fill="#9fa5ab" d="M 158.5,253.5 C 158.5,260.167 158.5,266.833 158.5,273.5C 141.123,265.633 125.789,254.799 112.5,241C 129.725,238.637 145.058,242.804 158.5,253.5 Z"/></g>
<g><path style="opacity:1" fill="#1f2c3c" d="M 158.5,253.5 C 172.242,264.037 187.575,271.37 204.5,275.5C 189.167,279.95 173.834,279.283 158.5,273.5C 158.5,266.833 158.5,260.167 158.5,253.5 Z"/></g>
<g><path style="opacity:1" fill="#9fa5ab" d="M 218.5,334.5 C 218.5,315.167 218.5,295.833 218.5,276.5C 223.175,277.661 225.841,275.994 226.5,271.5C 223.5,271.5 220.5,271.5 217.5,271.5C 217.33,270.178 217.663,269.011 218.5,268C 224.333,267.833 230.167,267.667 236,267.5C 247.823,266.665 259.323,268.165 270.5,272C 279.332,275.145 284.832,281.312 287,290.5C 292.35,318.165 280.85,332.665 252.5,334C 241.172,334.5 229.838,334.667 218.5,334.5 Z"/></g>
<g><path style="opacity:1" fill="#57616c" d="M 158.5,273.5 C 173.834,279.283 189.167,279.95 204.5,275.5C 209.103,276.383 213.77,276.717 218.5,276.5C 218.5,295.833 218.5,315.167 218.5,334.5C 217.833,315.996 217.167,297.329 216.5,278.5C 197.216,286.008 177.883,286.341 158.5,279.5C 158.5,277.5 158.5,275.5 158.5,273.5 Z"/></g>
<g><path style="opacity:1" fill="#2a3645" d="M 158.5,334.5 C 145.344,335.496 132.01,335.829 118.5,335.5C 118.5,355.167 118.5,374.833 118.5,394.5C 169.833,394.5 221.167,394.5 272.5,394.5C 221.003,395.499 169.336,395.832 117.5,395.5C 117.5,375.167 117.5,354.833 117.5,334.5C 131.167,334.5 144.833,334.5 158.5,334.5 Z"/></g>
</svg>
